<svg fill="#b66aff" fill-rule="evenodd" role="img" viewBox="0 0 24 24" xmlns="http://www.w3.org/2000/svg"><title>OpenAI</title><path d="M22.2819 9.8211a5.9847 5.9847 0 0 0-.5157-4.9108 6.0462 6.0462 0 0 0-6.5098-2.9A6.0651 6.0651 0 0 0 4.9807 4.1818a5.9847 5.9847 0 0 0-3.9977 2.9 6.0462 6.0462 0 0 0 .7427 7.0966 5.98 5.98 0 0 0 .511 4.9107 6.051 6.051 0 0 0 6.5146 2.9001A5.9847 5.9847 0 0 0 13.2599 24a6.0557 6.0557 0 0 0 5.7718-4.2058 5.9894 5.9894 0 0 0 3.9977-2.9001 6.0557 6.0557 0 0 0-.7475-7.073zm-9.022 12.6081a4.4755 4.4755 0 0 1-2.8764-1.0408l.1419-.0804 4.7783-2.7582a.7948.7948 0 0 0 .3927-.6813v-6.7369l2.02 1.1686a.071.071 0 0 1 .038.052v5.5826a4.504 4.504 0 0 1-4.4945 4.4944zm-9.6607-4.1254a4.4708 4.4708 0 0 1-.5346-3.0137l.142.0852 4.783 2.7582a.7712.7712 0 0 0 .7806 0l5.8428-3.3685v2.3324a.0804.0804 0 0 1-.0332.0615L9.74 19.9502a4.4992 4.4992 0 0 1-6.1408-1.6464zM2.3408 7.8956a4.485 4.485 0 0 1 2.3655-1.9728V11.6a.7664.7664 0 0 0 .3879.6765l5.8144 3.3543-2.0201 1.1685a.0757.0757 0 0 1-.071 0l-4.8303-2.7865A4.504 4.504 0 0 1 2.3408 7.8956zm16.0993 3.8558L12.5973 8.3829a.0804.0804 0 0 1 .0332-.0615l4.8303-2.7866a4.4992 4.4992 0 0 1 6.6802 4.66 4.485 4.485 0 0 1-2.0485 2.0965zM13.2599 1.562a4.4755 4.4755 0 0 1 2.8764 1.0407l-.1419.0804-4.7783 2.7582a.7948.7948 0 0 0-.3927.6813v6.7369l-2.02-1.1686a.071.071 0 0 1-.038-.052V6.0562A4.504 4.504 0 0 1 13.2599 1.562zm-6.0992 4.6853L9.1808 3.4608a.0804.0804 0 0 1 .071 0l4.8303 2.7866A4.504 4.504 0 0 1 17.6592 14.16v-5.6738a.7664.7664 0 0 0-.3879-.6765zM12 15.2281l-3.6666-2.1122 3.6666-2.1122 3.6666 2.1122z" fill-rule="evenodd"/></svg>